PathFileType	3	(X/Y/Z)	results
DataRate	CameraRate	NumFrames	NumMarkers	Units	OrigDataRate	OrigDataStartFrame	OrigNumFrames
30.0	30.0	4	85	mm	30.0	150	239
Frame#	Time	head			nose			neck			shoulder_r			elbow_r			wrist_r			shoulder_l			elbow_l			wrist_l			hip_r			knee_r			ankle_r			hip_l			knee_l			ankle_l			heel_r			heel_l			mtoe_r			ltoe_r			mtoe_l			ltoe_l			asis_l			asis_r			psi_r			psi_l			mhnd_r			lhnd_r			mhnd_l			lhnd_l			l_lat_knee			r_med_wrist			l_lat_ankle			r_med_ankle			r_lat_knee			xiphoid			l_med_ankle			r_med_knee			l_med_elbow			navel			r_lat_elbow			r_lat_wrist			l_med_wrist			l_lat_elbow			l_med_knee			r_med_elbow			r_lat_ankle			l_lat_wrist			chin			T10			r_eye			l_eye			l_ear			r_ear			spinal_cord_8			spinal_cord_12			spinal_cord_27			spinal_cord_33			up_arm_r_0			up_arm_r_5			up_arm_l_0			up_arm_l_5			front_torso_11			front_torso_7			front_torso_4			front_torso_1			front_torso_10			thigh_r_2			thigh_r_3			thigh_l_1			thigh_l_5			shank_l_0			shank_l_4			shank_r_1			shank_r_2			foot_r_1			foot_r_3			foot_r_5			foot_r_6			foot_r_7			foot_l_1			foot_l_7			foot_l_0			foot_l_4			foot_l_5			foot_l_6			
		X1	Y1	Z1	X2	Y2	Z2	X3	Y3	Z3	X4	Y4	Z4	X5	Y5	Z5	X6	Y6	Z6	X7	Y7	Z7	X8	Y8	Z8	X9	Y9	Z9	X10	Y10	Z10	X11	Y11	Z11	X12	Y12	Z12	X13	Y13	Z13	X14	Y14	Z14	X15	Y15	Z15	X16	Y16	Z16	X17	Y17	Z17	X18	Y18	Z18	X19	Y19	Z19	X20	Y20	Z20	X21	Y21	Z21	X22	Y22	Z22	X23	Y23	Z23	X24	Y24	Z24	X25	Y25	Z25	X26	Y26	Z26	X27	Y27	Z27	X28	Y28	Z28	X29	Y29	Z29	X30	Y30	Z30	X31	Y31	Z31	X32	Y32	Z32	X33	Y33	Z33	X34	Y34	Z34	X35	Y35	Z35	X36	Y36	Z36	X37	Y37	Z37	X38	Y38	Z38	X39	Y39	Z39	X40	Y40	Z40	X41	Y41	Z41	X42	Y42	Z42	X43	Y43	Z43	X44	Y44	Z44	X45	Y45	Z45	X46	Y46	Z46	X47	Y47	Z47	X48	Y48	Z48	X49	Y49	Z49	X50	Y50	Z50	X51	Y51	Z51	X52	Y52	Z52	X53	Y53	Z53	X54	Y54	Z54	X55	Y55	Z55	X56	Y56	Z56	X57	Y57	Z57	X58	Y58	Z58	X59	Y59	Z59	X60	Y60	Z60	X61	Y61	Z61	X62	Y62	Z62	X63	Y63	Z63	X64	Y64	Z64	X65	Y65	Z65	X66	Y66	Z66	X67	Y67	Z67	X68	Y68	Z68	X69	Y69	Z69	X70	Y70	Z70	X71	Y71	Z71	X72	Y72	Z72	X73	Y73	Z73	X74	Y74	Z74	X75	Y75	Z75	X76	Y76	Z76	X77	Y77	Z77	X78	Y78	Z78	X79	Y79	Z79	X80	Y80	Z80	X81	Y81	Z81	X82	Y82	Z82	X83	Y83	Z83	X84	Y84	Z84	X85	Y85	Z85	
150	5.0	120.95810506798101	1686.7257639078412	-455.9212702471141	109.92595482857091	1523.7630089422776	-582.5133887693923	85.81969844292684	1374.6010414341945	-428.20284882594234	268.80771653279083	1326.5179061187894	-414.25033975372895	341.94299647189644	1119.9608115382832	-558.2871374908223	182.40535021500048	1226.7577247216393	-673.5316868437361	-74.86433858320898	1312.3153473382567	-437.11572102936015	-175.86349423979456	1135.87155128915	-621.8050249038176	21.971692807393197	1230.2459485313525	-707.4423896660043	199.00507679624548	872.0706466185004	-431.6207445744488	230.5631443992418	493.0684533371659	-367.41067244879866	309.43409103412614	111.49511763405917	-363.79005704151297	-12.123045950468772	861.1926324717855	-440.82480913183065	-44.347309149118864	479.1192313172579	-366.8460711706311	-118.09221287660229	97.88914393815956	-353.5738989436185	313.70862853717347	56.059171769595835	-349.68982314517865	-133.65649314926802	34.13592177564887	-332.0362549769127	323.64732222379297	42.36592153513259	-576.1412076022847	386.80538122060403	40.82459985482854	-512.0994627071452	-100.88759155416236	51.15527835043521	-557.028602544856	-185.50877268766877	30.89509016358982	-510.60780897361667	-60.64726541997894	928.2428021684251	-487.9027392218524	248.5044681968066	940.8052788070293	-470.80967344173985	137.08950536482146	951.7230358627056	-323.6560394818032	32.070014046724175	946.1187177480871	-334.69993585845737	132.27164539303828	1234.3076130792815	-726.553367325161	126.8267101927413	1284.1575587086552	-707.7284408668851	80.19991588450573	1238.9298639727203	-755.9055762166158	94.49366050690662	1278.2718089220157	-722.6843848474963	-95.27444236132423	477.4482987161138	-362.48307090532126	191.24395776136097	1205.0069390140145	-689.1018592017284	-172.13137179914946	93.3659402673786	-343.99262877681895	278.669386729565	95.28726606697153	-380.1857589976568	273.81458452348693	487.0116286973584	-362.92066208431464	94.85329159383691	1206.0027737408316	-517.5924028155316	-92.12101157357375	80.63321958767428	-369.72792427249937	191.71644343198088	481.4370240411748	-379.86661735710277	-164.88335744827788	1113.8167371322654	-593.1778263832176	96.16486925584908	990.3349279202987	-527.3769120909055	364.81624028854	1148.1875684516967	-575.2420768354045	180.67531046081768	1239.6865806300425	-645.3361550141092	5.938867914451279	1216.2601126826805	-732.3270397576094	-191.52079548476723	1173.2838108682722	-631.9281287570399	-5.295380093219531	468.2115485757717	-396.57763070361204	318.07909664879134	1103.2983933467087	-535.5109461272675	359.54126306087875	103.18522042519079	-362.61669526238074	16.70976895413992	1246.4340578361425	-680.9218102592178	109.92795787674899	1449.3492940329688	-567.2742339661536	84.45680740655312	1221.2877588092606	-325.88810707264327	142.49477426955443	1553.8388623670269	-582.2070879389274	75.50235557742651	1554.5494443852522	-578.760025099629	29.616836568176847	1545.3427502737954	-477.6528048373603	195.85498842141556	1540.4359477504042	-483.8584634557694	82.22967843654091	1433.8384405117938	-381.5582239277294	80.50592601927983	1319.6674385193166	-328.3134377715834	99.83208709946693	1072.1087311659328	-337.4545554102425	85.17026853259038	1211.5339900502922	-338.45739436143145	281.8032108939933	1241.6309577760323	-521.7067058274894	344.99333622377424	1198.5341306794696	-477.0367549080214	-112.38987621717756	1299.079519622525	-486.33383534780296	-150.39388345486088	1154.2516928178013	-539.4580361155294	142.9256061046941	1019.3089171016212	-486.6135934733427	98.86549474152878	1119.8811813490884	-545.6365512923975	28.542652136794423	1249.3496049648816	-527.7904107582684	22.596878468977447	1050.4026430955519	-497.8940018864937	175.72880111312895	1291.9686411072564	-528.680545599769	199.4297308007835	663.3214984952256	-402.5900565451857	295.44618080828747	638.9336243274938	-379.5626761966557	10.36332873522798	581.8798420580774	-398.24375092676365	-123.23453766519187	764.8606384096888	-423.0658766845196	-167.18180770477107	202.89704595680962	-359.68710024476434	-26.059706372451306	322.4167097247299	-371.23621032846256	321.44591680952715	341.35792487881287	-358.90886224462383	232.94858198167807	285.8246800848131	-374.36787073754044	346.18774677378786	36.02463712729472	-556.4798255387557	369.53160543470113	38.77812561594192	-538.3567361289873	306.54089269752757	55.01632781166141	-494.02967851474665	342.78445901776536	62.91029550155916	-478.73740309878053	373.6323950302423	50.3175845828286	-464.56051228125256	-152.2882688084651	34.933269712759184	-537.3263536305876	-182.35594776459635	56.43428622290853	-431.94508087619147	-167.975828015082	33.81277805812647	-531.0141396627141	-133.08071677874187	36.22823212489956	-544.4380220048456	-146.5134656473855	47.24943224958891	-485.6314640470022	-119.41684414980604	57.94782939359004	-451.84684144501284	
151	5.033333333333333	117.71969526671775	1686.6715938350824	-453.2731056873907	107.43416374000061	1524.4302841910069	-580.8509156819892	84.79374982273133	1375.111350314313	-427.61365949153935	270.3947324667815	1327.2581980577097	-414.49056909334325	344.0060544991519	1121.7765219944442	-559.8172895082265	185.24331133090297	1228.7070608588365	-676.0042019988477	-72.24794282277895	1309.3832098453904	-438.73495890850603	-171.64835235088606	1134.6076461145026	-625.861767467271	26.9324928219149	1230.472951067572	-708.047761218929	197.50701117683477	872.5104795725973	-435.00380203812426	229.52497138730772	493.8291732853232	-369.14921983002966	309.08675500082694	112.4151522091697	-364.12799354942234	-13.637877128771624	861.339642307234	-443.44055188080614	-44.8097496567833	479.31901507878155	-368.74185434267383	-117.60294114685225	97.9400724784667	-354.52586622259537	313.58417013747487	57.04608513312914	-349.7812018977674	-132.8375209704231	34.296853670064756	-332.6894398472717	321.37823924399476	42.333303380360086	-576.2526102401413	385.1392649600393	41.07034743273295	-512.8050120200886	-101.6538268901129	50.04279068761072	-557.9995784674605	-185.87499031319857	29.721326711963748	-510.8833038786512	-62.43690614534973	928.4189065818507	-490.19184816710896	246.75788649361792	941.4024004529739	-474.22963631639703	135.8793009739661	951.8388782313335	-326.6366061478369	30.827520888712435	946.1028001535684	-337.2991806317648	135.55644849301646	1236.3691033170319	-729.4288830101618	129.83851975199778	1286.1284808931941	-710.4459462275673	85.71177066719838	1239.8607118123796	-755.7078414217087	99.4970602450921	1278.8612897096848	-721.8748983242291	-95.70773641021074	477.57206740073843	-364.07882930044264	194.2647874189337	1207.0403276739487	-691.5866784324303	-171.56135567544354	93.30678120406039	-344.5502499488959	278.22258158138834	96.06817430122766	-380.19534051196104	272.79958587288206	487.8107580433509	-364.8342679517545	93.99390238471275	1207.2731516896238	-518.4055661359772	-91.71028468148172	80.7244380391135	-370.84809121354215	190.62493343694726	482.1235402804714	-381.366915622706	-160.88271179625357	1112.2936164110351	-597.3542283164741	95.15356081492108	991.695457326481	-530.0240627680384	366.98178328917464	1150.1150434770313	-576.4440493691038	183.23961192513346	1241.514812100494	-647.7715424601158	11.237648818704372	1216.727602953881	-733.2794509277792	-187.24930220512292	1172.1032523402696	-635.7610279508809	-5.914630109501745	468.43260006391	-398.68600204411547	320.02326193638015	1104.9569606059274	-537.2827648099695	359.21599965933007	104.19684801934898	-363.30448628364934	21.308469270227004	1246.3452317311367	-681.4108521790267	107.56118012197658	1449.9285769072585	-566.0484737084985	82.94139118669203	1220.9328034282037	-326.61528856989804	139.93312066775087	1554.5776044570382	-580.2715551804922	72.9293580452237	1555.1160062140596	-577.0192868618985	26.766381960800707	1545.2118214601076	-476.10446721799457	193.03292732616833	1540.7185517877465	-481.8452390641677	81.09201439192786	1433.952188013479	-380.4784104874151	79.08388122486326	1319.3330691926797	-328.21540949146345	98.22824605056802	1071.8441224255744	-339.3997129471399	83.69031461991102	1211.2858943338758	-339.26472623909257	283.80721437219285	1243.2097361973147	-522.5530920624776	346.7537219419785	1199.703500183957	-477.9360821576325	-109.369764445567	1296.5841479751864	-488.3729510289659	-146.85047133685546	1152.2349312382273	-543.1459820631014	141.79667936862583	1020.2791898189465	-488.85251394087504	98.02968516546875	1121.390184336274	-547.1688950446834	27.75669331694719	1250.76449886942	-528.4645374436114	21.534938780017423	1051.5753189559514	-500.2865052047237	174.98176836957063	1293.258193858946	-528.4784698299993	198.15534107034082	663.901368995444	-404.9873619889262	294.2892631356964	639.6607467675681	-382.297086835944	9.549776195707064	582.1235515515904	-400.60218298677876	-124.48735671962608	764.8535825321655	-424.8979119329017	-166.97041881555668	202.83136717178618	-360.39847067800616	-26.20331409575484	322.6529782779495	-373.0942651036936	320.73593070433424	342.32073466106397	-360.55867450699753	232.21687857698436	286.5557419979937	-375.02738199350233	344.102997380149	36.077060666609654	-556.7770520647488	367.61759254895225	38.90846039901818	-538.8882065068354	305.05089768871034	55.35536576162228	-494.0406297977051	341.4383997601443	63.312505874266456	-479.1276110849988	372.4177197796189	50.778979156500675	-465.1867288707798	-152.85214853543656	33.730456120423504	-537.8501020377429	-182.3009574963111	55.76573528350416	-432.4044487413354	-168.49206296891347	32.58416194388193	-531.4252948997988	-133.69846087033883	35.06087742917149	-545.0991735409021	-146.78184977496642	46.39418801946965	-486.273177084915	-119.50399664207032	57.416857462302254	-452.7395699242337	
152	5.066666666666666	113.10790540169756	1687.6895800948348	-453.40313548858444	106.20972954458647	1523.9707269573805	-579.3105801216593	83.91745619419751	1375.2120630129837	-426.4399495271646	272.41137856366754	1327.7855442708767	-411.2919167305118	346.0646583413443	1124.662308019133	-559.876393942222	187.6184099148257	1230.1143140963488	-677.8332003083349	-71.82977933516014	1310.066973259559	-443.0937069988682	-168.35220574255618	1133.5583889175925	-630.1004513350482	30.66909108457297	1230.9669984464595	-709.3540476644076	196.65839615704908	872.9669653963516	-438.3132230409162	228.88302471502752	494.49818665526595	-371.3470798205553	308.0868854074133	113.02868389046449	-365.04529353392786	-14.482606498099459	861.408553557468	-446.3138682802408	-45.720868452031674	479.6201601580838	-370.46444946618055	-117.04812035223786	98.0085020957004	-355.10845807137673	312.4296569320384	57.62646760252545	-350.59770772407524	-131.8341975967569	34.46747236554222	-332.9339733817464	322.44828794072146	43.162454049392466	-576.9976450062368	385.60282856506365	42.077034802083844	-512.9430820027565	-102.5147752379562	48.8823294286099	-558.5832570998676	-186.23542463335286	28.356941148889007	-510.6700971293599	-63.54593635885841	928.790081718692	-492.3483766263379	245.6596779859001	942.3094840058309	-477.05468724798266	135.1353598093302	951.2024067958309	-329.09531996949687	30.06941763532925	945.3304624434757	-339.5422166394344	138.54569938240513	1237.3636867740302	-731.8795087044147	132.016099085577	1287.0011052162106	-712.839202375315	90.12956431730484	1240.741356732949	-756.0823136687983	103.01052607579815	1279.968041628462	-722.1545176898106	-96.58444047359356	477.97057542592233	-365.40711857872856	197.08737065386828	1208.5954533503416	-693.3549703179565	-170.89787390939648	93.20005189417485	-344.6407145224732	277.31639340022144	96.6757046985497	-381.28528796701397	272.14513224436644	488.5501090553193	-366.814661526019	93.68340018513918	1208.124896580374	-518.5484680711301	-91.24357947013402	80.86205032074695	-371.64168576687695	190.05650443431347	482.7082473797878	-383.71662071090253	-157.7464323087747	1111.48496987494	-601.3467303891996	94.96936726638361	992.6498161799442	-531.9242893052325	368.99121955585184	1153.2797920354342	-576.0880396383627	185.1026384640134	1242.8185615607426	-649.5947627067688	15.51148777386091	1217.0033034770504	-734.7934496481759	-184.06600115215466	1170.9011737874157	-640.3911526088177	-7.074924898665048	468.59661100606877	-400.6798221926952	322.1260310763309	1107.4696286302578	-537.5777238499165	358.20257494362176	104.77026425155151	-363.8722524505683	24.469489421262146	1246.8687782089726	-682.8628756032522	107.60578960005975	1449.641348473402	-563.7276625437421	81.53023431427977	1220.2114236244345	-326.7191921990571	138.1641879431399	1554.6976547998458	-578.9268184453933	71.14931131816758	1554.0739912979418	-575.9287047016882	24.777592192637503	1544.3989919918802	-475.0873832399791	191.11887159154472	1542.8142648355113	-480.16453295677644	79.9298262061461	1433.6641941359878	-378.8466107151257	77.65461281877909	1318.6205982258887	-327.53588361745346	96.93137011378366	1071.2359334650134	-340.63582215159215	82.35417949940923	1210.668567158678	-339.4426751945168	285.78357905775596	1245.4387072245472	-520.6616116410631	348.82801264050687	1201.3118756854326	-476.798699144504	-108.37830511079655	1296.7451674853862	-493.01875724065644	-144.48614529457487	1151.8438318292467	-547.2535384482925	141.3682810713728	1020.9063032658916	-490.25393485843006	97.90749454980349	1122.481215871648	-547.9902359433312	27.49273637520295	1251.6818410186374	-528.6299691483664	21.165223589159996	1052.2672219966475	-502.11934057734163	174.70367567867677	1294.208216935754	-527.4536473514587	197.4500607524412	664.435742560953	-407.7637485673574	293.5096991619074	640.3846570850592	-384.562919266353	8.564897592654303	582.2563090623106	-402.98656278401415	-125.34816313296149	765.1548943381694	-426.69097879738706	-166.8332273174662	202.7192747514056	-360.6686964841164	-26.606389190051587	323.01443251807973	-374.7856487773869	319.9066160179915	342.9310864064499	-361.85163400076334	231.4385562510181	287.21137339752136	-376.79875666155215	345.00876705428624	36.97256995826765	-557.3110330938734	368.3400952811305	39.87475833733014	-539.1950116880581	305.28525467537884	56.043556188582116	-494.9338075624246	341.4980574681023	64.12258354839628	-479.66531897608843	372.3892731975428	51.69176727263142	-465.4398715230189	-153.45050496834753	32.3887415299946	-537.922308578931	-182.21042141176403	54.953388734729224	-432.3984933578696	-169.0321456349819	31.188740593858864	-531.3670410424693	-134.36287542048606	33.78912766942739	-545.330690763517	-147.05609682718406	45.43859862684406	-486.48097700092904	-119.58617729728319	56.85722590364347	-453.2379056246706	
153	5.1	111.54270482472093	1687.3141306936793	-451.5368772261113	105.37176717050461	1524.3472862542906	-578.4536194580393	83.18758755981068	1375.3506618032036	-425.957258639428	271.8133701934069	1328.7517489788354	-411.23704508086087	347.3466795855586	1126.8475031488374	-560.5374010206809	189.4806378642571	1231.044148863752	-680.3727851409349	-71.8801227653463	1309.843224525801	-445.34131881174113	-168.51018365997254	1134.951457015422	-633.805858080512	31.237840094200024	1231.9761366374532	-711.6902909460167	196.26560692886275	872.9288481652212	-440.27593585164345	229.05183361772578	494.56910969542747	-372.96710173713683	308.709484144875	113.20019608360948	-366.3070685808989	-14.846634688820679	861.3425447422883	-448.9655401494696	-45.81379303450923	479.77580637444026	-371.8993351427906	-116.67400621778549	98.13097980985475	-355.25909930965344	313.08975854772	57.84442800361825	-351.79058808975185	-131.2655846596409	34.64890348434689	-332.83512509990464	323.6773853273146	42.89226308147584	-578.1329110875446	386.68516265929844	42.13224425213005	-513.9293010251567	-103.40450066278481	48.37982769155642	-558.7117232526119	-186.8143117439362	28.003188500051387	-510.1967195089704	-63.772818675822	928.754500310834	-495.1013548700191	245.37973488840876	942.3117589208741	-478.8015855766036	134.3784712220287	951.062868981638	-331.1912170831757	29.347663335006587	945.1824513575051	-341.9810117329945	141.0217739127075	1237.920488346471	-735.0183909506102	133.8329616054156	1287.4842656539922	-716.023780889663	90.9171188877291	1241.7827979169906	-758.1319734950248	103.84302076796915	1280.7355324963742	-723.9069409445954	-96.66797278391033	478.1231961175672	-366.7493870225811	199.32474572432727	1209.6199862041647	-695.7918228635044	-170.46369721608394	93.2938321957219	-344.49982648201603	277.97087117474894	96.79751433958972	-382.55730643391877	272.3166473015871	488.7019065752096	-368.3557879266723	93.5259722509727	1208.9216134987494	-519.1879602313817	-90.93846230823479	80.97071953341006	-371.8852835851415	190.26780599803877	482.70034152340344	-385.3944277061554	-158.1086818777333	1112.6500211430398	-605.1536427159531	95.05851391134885	993.5467613334974	-534.0675082570331	370.2518687478493	1155.6622792209137	-576.4265811782219	186.50650870174837	1243.702555294235	-652.158326610383	16.114919004256436	1218.241827470383	-737.2747959837544	-184.01851816550763	1172.4287325115217	-643.9177749595436	-7.215870957105873	468.6742303621209	-402.14750466407725	323.3385282506679	1109.4163547315425	-538.5001479676662	358.83417113433455	105.00298101496219	-365.0899912077192	25.00850882406061	1247.7367037914255	-685.1218169122125	106.75136727999569	1449.9269652944372	-563.3094674017688	80.46764345147713	1219.6526166590434	-327.33754902928547	137.30013226360106	1555.0952905366773	-577.7335400614412	70.272237670082	1554.4034829102588	-575.0588288971859	23.42814970406483	1544.089880670361	-474.49951758370116	189.7929120096745	1542.6601905676364	-478.7927553689174	78.92799446964047	1433.4643023045257	-377.9745598886356	76.5117570600026	1318.061879424794	-327.48259160214593	96.06087529306534	1070.7910930743615	-342.22587190904676	81.35909712648346	1210.199900758581	-340.1236151631809	286.27173669175187	1247.120141905687	-521.0039975176968	349.221815050834	1203.0103940229526	-476.98865091632206	-108.3054894871585	1297.0006797060016	-495.48149819749096	-144.86503165372815	1152.607661739616	-550.7593502671989	141.2383419675608	1021.5484668774817	-491.98384549141855	97.96058490426368	1123.4900049418286	-549.2092057747088	27.345855807233402	1252.4937578207005	-529.2730222068201	21.065187099664033	1052.892998183887	-504.1905367245858	174.5133002170488	1295.1318402093054	-527.1110165797995	197.37768039364056	664.4225405953364	-409.5668001286967	293.44011696957153	640.5609856513961	-386.1825789756831	8.378135985907809	582.3320345766931	-404.82753274880207	-125.64282181009135	765.108938675135	-428.85846837311914	-166.5932947522829	202.7783019832755	-360.8108225594566	-26.563577830338332	323.1793470894065	-375.9450939817319	320.2504193796193	343.1190777506233	-363.284678394367	231.86065256839765	287.2813171429931	-378.2544514704573	346.2093238429688	36.81136682222522	-558.3797589620185	369.4900179329573	39.82108585321833	-540.2162053494924	306.2865633492006	55.911858161621545	-496.1389151240198	342.4406248027024	64.12843672132169	-480.8047640198642	373.33365893098136	51.81782636704111	-466.47908522900855	-154.20607257657787	31.95107756732878	-537.6722779375611	-182.2829593189833	54.836097904667994	-432.0335731408396	-169.745059457108	30.771604027860924	-531.0128643386142	-135.16667761575752	33.32819889417825	-545.2080450561646	-147.47907245296776	45.15619462979484	-486.31305118184133	-119.79463391780405	56.67410439201206	-453.28286892235525	
